<svg width="181" height="40" viewBox="0 0 181 40" fill="none" xmlns="http://www.w3.org/2000/svg">
<path d="M0 39.264V0.384003H9.70338C12.0528 0.384003 13.9194 0.816002 15.3033 1.68C16.7194 2.512 17.7493 3.728 18.393 5.328C19.0366 6.92801 19.3585 8.864 19.3585 11.136C19.3585 13.184 18.9884 14.96 18.2481 16.464C17.5401 17.968 16.478 19.136 15.062 19.968C13.6459 20.768 11.8758 21.168 9.75165 21.168H5.45513V39.264H0ZM5.45513 17.28H7.96546C9.54246 17.28 10.7815 17.104 11.6827 16.752C12.5838 16.4 13.2275 15.792 13.6137 14.928C13.9999 14.032 14.193 12.784 14.193 11.184C14.193 9.328 14.0482 7.90401 13.7585 6.912C13.501 5.92 12.9378 5.232 12.0689 4.84801C11.1999 4.464 9.8482 4.27201 8.01373 4.27201H5.45513V17.28Z" fill="white"/>
<path d="M23.3585 39.264V0.384003H38.517V4.41601H28.8136V17.28H36.6825V21.12H28.8136V35.376H38.6135V39.264H23.3585Z" fill="white"/>
<path d="M42.6135 39.264V0.384003H57.7238V4.41601H48.0687V39.264H42.6135Z" fill="white"/>
<path d="M61.7238 39.264V0.384003H66.5513V27.312L77.9926 0.384003H81.9029V39.264H77.1236V11.904L65.7789 39.264H61.7238Z" fill="white"/>
<path d="M96.6201 39.648C93.9811 39.648 91.873 39.136 90.296 38.112C88.719 37.088 87.5926 35.632 86.9167 33.744C86.2409 31.824 85.903 29.584 85.903 27.024V12.288C85.903 9.728 86.2409 7.536 86.9167 5.712C87.6248 3.856 88.7512 2.448 90.296 1.488C91.873 0.496 93.9811 0 96.6201 0C99.2592 0 101.351 0.496 102.896 1.488C104.441 2.48 105.551 3.888 106.227 5.712C106.935 7.536 107.289 9.728 107.289 12.288V27.072C107.289 29.6 106.935 31.808 106.227 33.696C105.551 35.584 104.441 37.056 102.896 38.112C101.351 39.136 99.2592 39.648 96.6201 39.648ZM96.6201 35.376C98.0684 35.376 99.1626 35.088 99.9028 34.512C100.643 33.904 101.142 33.072 101.399 32.016C101.657 30.928 101.786 29.664 101.786 28.224V11.184C101.786 9.744 101.657 8.512 101.399 7.488C101.142 6.432 100.643 5.632 99.9028 5.088C99.1626 4.512 98.0684 4.224 96.6201 4.224C95.1718 4.224 94.0615 4.512 93.2891 5.088C92.5489 5.632 92.05 6.432 91.7926 7.488C91.5351 8.512 91.4064 9.744 91.4064 11.184V28.224C91.4064 29.664 91.5351 30.928 91.7926 32.016C92.05 33.072 92.5489 33.904 93.2891 34.512C94.0615 35.088 95.1718 35.376 96.6201 35.376Z" fill="white"/>
<path d="M111.289 39.264V0.384003H116.744V17.184H126.785V0.384003H132.241V39.264H126.785V21.072H116.744V39.264H111.289Z" fill="white"/>
<path d="M136.241 39.432V35.784L146.185 20.376C146.926 19.224 147.601 18.152 148.213 17.16C148.857 16.168 149.371 15.128 149.758 14.04C150.176 12.92 150.385 11.64 150.385 10.2C150.385 8.408 150.096 7 149.516 5.976C148.937 4.952 147.923 4.44 146.475 4.44C145.252 4.44 144.303 4.776 143.627 5.448C142.951 6.12 142.484 7 142.227 8.088C141.969 9.176 141.84 10.344 141.84 11.592V12.888H136.675V11.544C136.675 9.208 136.981 7.208 137.592 5.544C138.236 3.848 139.25 2.536 140.634 1.608C142.05 0.680004 143.916 0.216003 146.234 0.216003C149.388 0.216003 151.737 1.112 153.282 2.904C154.827 4.664 155.599 7.112 155.599 10.248C155.599 11.912 155.39 13.368 154.971 14.616C154.585 15.864 154.07 17.032 153.427 18.12C152.783 19.208 152.075 20.328 151.302 21.48L142.323 35.112H154.682V39.432H136.241Z" fill="white"/>
<path d="M170.944 39.264V28.848H159.599V23.472L169.785 0.384003H175.868V24.288H180.261V28.848H175.868V39.264H170.944ZM164.571 24.288H170.944V6.62401L164.571 24.288Z" fill="white"/>
</svg>
