<svg width="112" height="73" viewBox="0 0 112 73" fill="none" xmlns="http://www.w3.org/2000/svg">
<path d="M87.0455 62.288V48.4H72.0055V41.232L85.5095 10.448H93.5735V42.32H99.3975V48.4H93.5735V62.288H87.0455ZM78.5975 42.32H87.0455V18.768L78.5975 42.32Z" fill="#7395AE"/>
<path d="M41.9445 62.288V57.424L55.1285 36.88C56.1098 35.344 57.0058 33.9147 57.8165 32.592C58.6698 31.2693 59.3525 29.8827 59.8645 28.432C60.4191 26.9387 60.6965 25.232 60.6965 23.312C60.6965 20.9227 60.3125 19.0453 59.5445 17.68C58.7765 16.3147 57.4325 15.632 55.5125 15.632C53.8911 15.632 52.6325 16.08 51.7365 16.976C50.8405 17.872 50.2218 19.0453 49.8805 20.496C49.5391 21.9467 49.3685 23.504 49.3685 25.168V26.896H42.5205V25.104C42.5205 21.9893 42.9258 19.3227 43.7365 17.104C44.5898 14.8427 45.9338 13.0933 47.7685 11.856C49.6458 10.6187 52.1205 10 55.1925 10C59.3738 10 62.4885 11.1947 64.5365 13.584C66.5845 15.9307 67.6085 19.1947 67.6085 23.376C67.6085 25.5947 67.3311 27.536 66.7765 29.2C66.2645 30.864 65.5818 32.4213 64.7285 33.872C63.8751 35.3227 62.9365 36.816 61.9125 38.352L50.0085 56.528H66.3925V62.288H41.9445Z" fill="#7395AE"/>
<path d="M12.6025 62.288V10.448H25.4665C28.5811 10.448 31.0558 11.024 32.8905 12.176C34.7678 13.2853 36.1331 14.9067 36.9865 17.04C37.8398 19.1733 38.2665 21.7547 38.2665 24.784C38.2665 27.5147 37.7758 29.8827 36.7945 31.888C35.8558 33.8933 34.4478 35.4507 32.5705 36.56C30.6931 37.6267 28.3465 38.16 25.5305 38.16H19.8345V62.288H12.6025ZM19.8345 32.976H23.1625C25.2531 32.976 26.8958 32.7413 28.0905 32.272C29.2851 31.8027 30.1385 30.992 30.6505 29.84C31.1625 28.6453 31.4185 26.9813 31.4185 24.848C31.4185 22.3733 31.2265 20.4747 30.8425 19.152C30.5011 17.8293 29.7545 16.912 28.6025 16.4C27.4505 15.888 25.6585 15.632 23.2265 15.632H19.8345V32.976Z" fill="#7395AE"/>
</svg>
